<?xml version="1.0" encoding="iso-8859-1"?>
<!-- Uploaded to: SVG Repo, www.svgrepo.com, Generator: SVG Repo Mixer Tools -->
<svg height="800px" width="800px" version="1.1" id="Layer_1" xmlns="http://www.w3.org/2000/svg" xmlns:xlink="http://www.w3.org/1999/xlink" 
	 viewBox="0 0 392.518 392.518" xml:space="preserve">
<path style="fill:#FFFFFF;" d="M200.21,260.506h-9.568c11.766,18.166,32.129,30.19,55.337,30.19
	c36.396,0,66.004-29.608,66.004-66.004s-29.608-66.004-66.004-66.004c-25.729,0-47.968,14.869-58.893,36.331h31.16
	c6.012,0,10.925,4.848,10.925,10.925c0,6.012-4.848,10.925-10.925,10.925h-37.689c-0.323,2.521-0.517,5.172-0.517,7.822
	c0,4.784,0.517,9.503,1.552,13.964h18.683c6.012,0,10.925,4.848,10.925,10.925C211.135,255.657,206.222,260.506,200.21,260.506z"/>
<circle style="fill:#56ACE0;" cx="246.044" cy="224.756" r="43.378"/>
<path style="fill:#FFC10D;" d="M170.279,180.473c13.188-22.562,36.267-38.659,63.16-42.602c0.259-1.939,0.388-3.943,0.388-5.883
	c0-27.669-22.562-50.23-50.23-50.23c-27.733,0-50.23,22.562-50.23,50.23C133.366,155.003,148.816,174.591,170.279,180.473z"/>
<path style="fill:#FFFFFF;" d="M183.596,42.906c-74.925,0-139.572,67.297-158.513,89.083c16.743,19.329,69.56,74.279,133.366,86.562
	c0.453-6.206,1.487-12.218,3.168-17.907c-29.285-9.374-50.166-36.784-50.166-68.525c0-39.693,32.323-72.016,72.016-72.016
	s72.081,32.323,72.081,72.016c0,1.745-0.129,3.62-0.323,5.43c21.333,2.263,40.339,12.218,54.303,26.958
	c14.933-13.059,26.117-25.212,32.388-32.388C323.103,110.332,258.392,42.906,183.596,42.906z"/>
<g>
	<circle style="fill:#194F82;" cx="183.596" cy="131.73" r="14.998"/>
	<path style="fill:#194F82;" d="M382.061,309.184l-53.786-53.786c3.556-9.568,5.624-19.846,5.624-30.707
		c0-15.515-4.073-30.061-11.119-42.731c25.859-22.432,41.503-42.408,42.214-43.378c3.038-3.943,3.038-9.438,0-13.382
		c-3.297-4.267-81.778-104.21-181.269-104.21S5.56,121.128,2.327,125.395c-3.103,3.943-3.103,9.438,0,13.382
		c2.844,3.685,69.366,88.501,157.479,102.335c7.628,40.663,43.378,71.564,86.238,71.564c10.796,0,21.075-2.069,30.578-5.624
		l53.01,53.01c12.154,13.059,35.749,17.067,52.299,0.776C395.83,347.52,396.218,323.019,382.061,309.184z M158.448,218.55
		c-63.806-12.283-116.622-67.232-133.366-86.562c18.941-21.657,83.459-89.083,158.513-89.083
		c74.796,0,139.572,67.362,158.513,89.083c-6.271,7.176-17.455,19.394-32.388,32.388c-13.964-14.739-32.97-24.76-54.303-26.958
		c0.129-1.745,0.323-3.62,0.323-5.43c0-39.693-32.323-72.016-72.081-72.016c-39.693,0-72.016,32.323-72.016,72.016
		c0,31.806,20.816,59.216,50.166,68.525C160,206.332,158.966,212.409,158.448,218.55z M133.366,131.989
		c0-27.669,22.562-50.23,50.23-50.23s50.23,22.562,50.23,50.23c0,1.939-0.129,3.943-0.388,5.883
		c-26.958,3.879-49.907,20.04-63.16,42.602C148.816,174.591,133.366,155.003,133.366,131.989z M246.044,290.76
		c-23.208,0-43.572-12.024-55.337-30.19h9.568c6.012,0,10.925-4.848,10.925-10.925c0-6.012-4.848-10.925-10.925-10.925h-18.683
		c-1.034-4.461-1.551-9.18-1.551-13.964c0-2.65,0.259-5.236,0.517-7.822h37.689c6.012,0,10.925-4.848,10.925-10.925
		s-4.848-10.925-10.925-10.925h-31.16c10.925-21.527,33.164-36.331,58.893-36.331c36.396,0,66.004,29.608,66.004,66.004
		C312.048,261.152,282.44,290.76,246.044,290.76z M363.766,347.585c-5.43,3.297-13.834,1.875-18.295-2.651l-48.549-48.549
		c-0.065,0-0.065-0.065-0.065-0.065c7.952-5.689,14.998-12.671,20.687-20.622c0.065,0,0.065,0,0.129,0l49.002,49.002
		C372.816,330.712,372.428,342.801,363.766,347.585z"/>
</g>
<path style="fill:#FFC10D;" d="M345.471,344.934c4.461,4.461,12.929,6.012,18.295,2.651c8.663-4.784,9.05-16.873,2.78-22.95
	l-49.002-48.937c-0.065,0-0.065,0-0.129,0c-5.689,7.952-12.671,14.998-20.687,20.622c0.065,0,0.065,0.065,0.065,0.065
	L345.471,344.934z"/>
</svg>